<svg width="25" height="25" viewBox="0 0 25 25" fill="none" xmlns="http://www.w3.org/2000/svg">
<path d="M17.166 14.282L16.5 13.686V8.5C16.5 7.43913 16.0786 6.42172 15.3284 5.67157C14.5783 4.92143 13.5609 4.5 12.5 4.5C11.4391 4.5 10.4217 4.92143 9.67158 5.67157C8.92143 6.42172 8.50001 7.43913 8.50001 8.5V13.686L7.83401 14.282C6.86755 15.1445 6.15987 16.2586 5.79001 17.5H19.21C18.8401 16.2586 18.1325 15.1445 17.166 14.282ZM15.5 19.5C15.5 20.2956 15.1839 21.0587 14.6213 21.6213C14.0587 22.1839 13.2957 22.5 12.5 22.5C11.7044 22.5 10.9413 22.1839 10.3787 21.6213C9.81608 21.0587 9.50001 20.2956 9.50001 19.5H3.50001C3.49865 18.2335 3.76524 16.9811 4.28229 15.825C4.79933 14.6689 5.55512 13.6353 6.50001 12.792V8.5C6.50001 6.9087 7.13215 5.38258 8.25736 4.25736C9.38258 3.13214 10.9087 2.5 12.5 2.5C14.0913 2.5 15.6174 3.13214 16.7426 4.25736C17.8679 5.38258 18.5 6.9087 18.5 8.5V12.792C19.4449 13.6353 20.2007 14.6689 20.7177 15.825C21.2348 16.9811 21.5014 18.2335 21.5 19.5H15.5ZM12.5 20.5C12.7652 20.5 13.0196 20.3946 13.2071 20.2071C13.3946 20.0196 13.5 19.7652 13.5 19.5H11.5C11.5 19.7652 11.6054 20.0196 11.7929 20.2071C11.9804 20.3946 12.2348 20.5 12.5 20.5Z" fill="#001D6C"/>
</svg>
