<svg width="25" height="25" viewBox="0 0 25 25" fill="none" xmlns="http://www.w3.org/2000/svg">
<path d="M22.5 10.663C22.174 10.8463 21.9027 11.113 21.7139 11.4359C21.5252 11.7587 21.4258 12.126 21.426 12.5C21.426 13.289 21.859 13.976 22.5 14.337L21.783 16.743C21.3954 16.6763 20.997 16.7196 20.6327 16.8678C20.2685 17.016 19.953 17.2633 19.7222 17.5816C19.4913 17.8999 19.3542 18.2766 19.3264 18.6688C19.2986 19.0611 19.3813 19.4533 19.565 19.801L17.503 21.403C17.23 21.1792 16.9051 21.0277 16.5582 20.9624C16.2113 20.8971 15.8535 20.9202 15.5179 21.0295C15.1822 21.1387 14.8794 21.3307 14.6374 21.5877C14.3954 21.8447 14.2219 22.1584 14.133 22.5L10.843 22.492C10.7531 22.152 10.5794 21.84 10.3378 21.5845C10.0962 21.329 9.79439 21.1381 9.45999 21.0292C9.12559 20.9204 8.76924 20.8972 8.42353 20.9616C8.07782 21.026 7.75377 21.176 7.481 21.398L5.421 19.783C5.59957 19.4367 5.67855 19.0477 5.64914 18.6592C5.61973 18.2708 5.48309 17.8981 5.25442 17.5826C5.02576 17.2672 4.71404 17.0214 4.35398 16.8727C3.99391 16.7239 3.59962 16.678 3.215 16.74L2.5 14.325C2.81995 14.1398 3.08551 13.8737 3.27 13.5533C3.45449 13.233 3.5514 12.8697 3.551 12.5C3.551 11.72 3.13 11.04 2.5 10.675L3.215 8.26C3.5997 8.32225 3.99412 8.27648 4.35435 8.1278C4.71457 7.97912 5.02645 7.73336 5.25525 7.4179C5.48405 7.10243 5.62078 6.72964 5.65022 6.34106C5.67966 5.95247 5.60066 5.56334 5.422 5.217L7.48 3.602C7.75277 3.82395 8.07682 3.97399 8.42253 4.03841C8.76824 4.10283 9.12459 4.07957 9.45899 3.97075C9.79339 3.86194 10.0952 3.67104 10.3368 3.41551C10.5784 3.15998 10.7521 2.84797 10.842 2.508L14.134 2.5C14.2229 2.84161 14.3964 3.15535 14.6384 3.41233C14.8804 3.66931 15.1832 3.86127 15.5189 3.97053C15.8545 4.0798 16.2123 4.10285 16.5592 4.03758C16.9061 3.9723 17.231 3.82079 17.504 3.597L19.564 5.2C19.3803 5.54769 19.2976 5.93989 19.3254 6.33215C19.3532 6.72442 19.4903 7.10106 19.7212 7.41938C19.952 7.73771 20.2675 7.985 20.6317 8.13322C20.996 8.28144 21.3944 8.32467 21.782 8.258L22.5 10.662V10.663ZM17.323 6.18C17.323 6.117 17.325 6.055 17.328 5.992L17.248 5.93C16.4691 6.14219 15.6449 6.11989 14.8786 5.86588C14.1123 5.61187 13.4379 5.13744 12.94 4.502L12.036 4.504C11.5399 5.13674 10.8687 5.60966 10.106 5.86392C9.3432 6.11817 8.52251 6.14255 7.746 5.934L7.651 6.01C7.68866 6.91268 7.42769 7.80259 6.9085 8.54197C6.3893 9.28135 5.64085 9.82895 4.779 10.1C5.28181 10.7988 5.55191 11.6381 5.551 12.499C5.551 13.381 5.271 14.214 4.779 14.899C5.64085 15.17 6.3893 15.7176 6.9085 16.457C7.42769 17.1964 7.68866 18.0863 7.651 18.989L7.747 19.064C8.52339 18.8562 9.34371 18.8809 10.1062 19.1351C10.8686 19.3894 11.5397 19.8619 12.036 20.494L12.94 20.496C13.4376 19.8604 14.1118 19.3859 14.8779 19.1319C15.6441 18.8778 16.4682 18.8556 17.247 19.068L17.327 19.006C17.2858 18.1005 17.5452 17.2068 18.0649 16.4642C18.5845 15.7215 19.3352 15.1716 20.2 14.9C19.6968 14.201 19.4263 13.3613 19.427 12.5C19.427 11.618 19.708 10.784 20.2 10.1C19.366 9.83781 18.6374 9.31638 18.1201 8.61155C17.6029 7.90672 17.324 7.05526 17.324 6.181L17.323 6.18ZM12.5 16.5C11.4391 16.5 10.4217 16.0786 9.67157 15.3284C8.92143 14.5783 8.5 13.5609 8.5 12.5C8.5 11.4391 8.92143 10.4217 9.67157 9.67157C10.4217 8.92143 11.4391 8.5 12.5 8.5C13.5609 8.5 14.5783 8.92143 15.3284 9.67157C16.0786 10.4217 16.5 11.4391 16.5 12.5C16.5 13.5609 16.0786 14.5783 15.3284 15.3284C14.5783 16.0786 13.5609 16.5 12.5 16.5ZM12.5 14.5C13.0304 14.5 13.5391 14.2893 13.9142 13.9142C14.2893 13.5391 14.5 13.0304 14.5 12.5C14.5 11.9696 14.2893 11.4609 13.9142 11.0858C13.5391 10.7107 13.0304 10.5 12.5 10.5C11.9696 10.5 11.4609 10.7107 11.0858 11.0858C10.7107 11.4609 10.5 11.9696 10.5 12.5C10.5 13.0304 10.7107 13.5391 11.0858 13.9142C11.4609 14.2893 11.9696 14.5 12.5 14.5Z" fill="#001D6C"/>
</svg>
