<svg width="32" height="32" viewBox="0 0 32 32" fill="none" xmlns="http://www.w3.org/2000/svg">
<rect x="0.673118" y="0.673118" width="30.6538" height="30.6538" rx="7.32688" fill="white" stroke="#F0F2FF" stroke-width="1.34624"/>
<g clip-path="url(#clip0_324_112)">
<path d="M15.1667 11.8333H16.8333V20.1667H15.1667V11.8333ZM18.5 15.1667H20.1667V20.1667H18.5V15.1667ZM11.8333 16.8333H13.5V20.1667H11.8333V16.8333ZM18.5 9.33332H10.1667V22.6667H21.8333V12.6667H18.5V9.33332ZM8.5 8.49332C8.5 8.03666 8.8725 7.66666 9.3325 7.66666H19.3333L23.5 11.8333V23.4942C23.5008 23.6036 23.48 23.7121 23.4388 23.8135C23.3976 23.9149 23.3369 24.0072 23.2601 24.0851C23.1832 24.163 23.0918 24.2251 22.991 24.2677C22.8902 24.3102 22.7819 24.3326 22.6725 24.3333H9.3275C9.10865 24.3318 8.89918 24.2442 8.74435 24.0896C8.58951 23.9349 8.50175 23.7255 8.5 23.5067V8.49332Z" fill="#544D7C"/>
</g>
<defs>
<clipPath id="clip0_324_112">
<rect width="20" height="20" fill="white" transform="translate(6 6)"/>
</clipPath>
</defs>
</svg>
