<svg width="22" height="24" viewBox="0 0 22 24" fill="none" xmlns="http://www.w3.org/2000/svg">
<g clip-path="url(#clip0_250_185)">
<path d="M3.35008 8.94382H18.4383C18.5554 8.94376 18.6712 8.97165 18.7785 9.02574C18.8857 9.07983 18.9821 9.15894 19.0614 9.25806C19.1407 9.35718 19.2013 9.47416 19.2393 9.6016C19.2773 9.72904 19.2919 9.86416 19.2822 9.99842L18.5763 19.7362C18.5586 19.9796 18.4622 20.2064 18.3061 20.3718C18.1499 20.5372 17.9455 20.6291 17.7332 20.6292H4.05514C3.8429 20.6291 3.63845 20.5372 3.48231 20.3718C3.32616 20.2064 3.22973 19.9796 3.21211 19.7362L2.5062 9.99842C2.49648 9.86416 2.51108 9.72904 2.54909 9.6016C2.58709 9.47416 2.64766 9.35718 2.72698 9.25806C2.80629 9.15894 2.90262 9.07983 3.00988 9.02574C3.11713 8.97165 3.23297 8.94376 3.35008 8.94382ZM4.83385 18.6816H16.9545L17.5182 10.8914H4.27013L4.83385 18.6816ZM12.091 5.04869H17.6655C17.89 5.04869 18.1053 5.15128 18.264 5.3339C18.4228 5.51652 18.5119 5.7642 18.5119 6.02247V6.99625H3.27644V4.0749C3.27644 3.81664 3.36562 3.56895 3.52435 3.38633C3.68308 3.20371 3.89837 3.10112 4.12286 3.10112H10.3982L12.091 5.04869Z" fill="#FFAC4E"/>
</g>
<defs>
<clipPath id="clip0_250_185">
<rect width="20.314" height="23.3708" fill="white" transform="translate(0.737198 0.179779)"/>
</clipPath>
</defs>
</svg>
