<svg width="16" height="16" viewBox="0 0 16 16" fill="none" xmlns="http://www.w3.org/2000/svg">
<path d="M2.66667 2C2.29848 2 2 2.29848 2 2.66667V6.66667C2 7.03487 2.29848 7.33333 2.66667 7.33333H6.66667C7.03487 7.33333 7.33333 7.03487 7.33333 6.66667V2.66667C7.33333 2.29848 7.03487 2 6.66667 2H2.66667ZM2.66667 8.66667C2.29848 8.66667 2 8.96513 2 9.33333V13.3333C2 13.7015 2.29848 14 2.66667 14H6.66667C7.03487 14 7.33333 13.7015 7.33333 13.3333V9.33333C7.33333 8.96513 7.03487 8.66667 6.66667 8.66667H2.66667ZM9.33333 8.66667C8.96513 8.66667 8.66667 8.96513 8.66667 9.33333V13.3333C8.66667 13.7015 8.96513 14 9.33333 14H13.3333C13.7015 14 14 13.7015 14 13.3333V9.33333C14 8.96513 13.7015 8.66667 13.3333 8.66667H9.33333ZM10 12.6667V10H12.6667V12.6667H10ZM3.33333 6V3.33333H6V6H3.33333ZM3.33333 12.6667V10H6V12.6667H3.33333ZM10.6667 7.33333V5.33333H8.66667V4H10.6667V2H12V4H14V5.33333H12V7.33333H10.6667Z" fill="#555459"/>
</svg>
