<svg width="31" height="31" viewBox="0 0 31 31" fill="none" xmlns="http://www.w3.org/2000/svg">
<path fill-rule="evenodd" clip-rule="evenodd" d="M1.68062 0.5C1.02831 0.5 0.5 0.979451 0.5 1.57143C0.5 2.16341 1.02831 2.64286 1.68062 2.64286H3.15196L5.02917 8.61337C4.75615 8.79284 4.50822 9.00443 4.29865 9.25222C3.62719 10.0411 3.39843 11.0656 3.67589 12.0299C4.57611 15.1464 6.03124 20.1861 6.76912 22.7442C7.1779 24.1571 8.58433 25.1442 10.1959 25.1442H23.8646C25.4747 25.1442 26.8826 24.1571 27.2914 22.7442C28.0293 20.1862 29.4844 15.1465 30.3846 12.0299C30.6621 11.0656 30.4333 10.0411 29.7618 9.25222C29.0919 8.46337 28.0559 8.00134 26.9579 8.00134H7.29758L5.1813 1.27825C5.03668 0.818891 4.57033 0.501473 4.04496 0.501473H1.68372L1.68062 0.5ZM7.10279 10.1429H26.9565C27.3225 10.1429 27.6693 10.2969 27.8922 10.5594C28.115 10.8218 28.1917 11.1647 28.1002 11.4861C27.2 14.6026 25.7464 19.6424 25.0085 22.2004C24.8712 22.6719 24.4019 23 23.8648 23H10.196C9.65882 23 9.18952 22.6718 9.0523 22.2004L5.96055 11.4861C5.86905 11.1647 5.94579 10.8219 6.16863 10.5594C6.39147 10.2969 6.73828 10.1429 7.10429 10.1429H7.10279ZM17.0287 11.2143C16.3764 11.2143 15.8481 11.6937 15.8481 12.2857V20.8571C15.8481 21.4491 16.3764 21.9286 17.0287 21.9286C17.681 21.9286 18.2093 21.4491 18.2093 20.8571V12.2857C18.2093 11.6937 17.681 11.2143 17.0287 11.2143ZM12.3062 12.2857C11.6539 12.2857 11.1256 12.7652 11.1256 13.3571V19.7857C11.1256 20.3777 11.6539 20.8571 12.3062 20.8571C12.9585 20.8571 13.4868 20.3777 13.4868 19.7857V13.3571C13.4868 12.7652 12.9585 12.2857 12.3062 12.2857ZM21.7512 12.2857C21.0989 12.2857 20.5706 12.7652 20.5706 13.3571V19.7857C20.5706 20.3777 21.0989 20.8571 21.7512 20.8571C22.4035 20.8571 22.9318 20.3777 22.9318 19.7857V13.3571C22.9318 12.7652 22.4035 12.2857 21.7512 12.2857ZM11.1256 26.2143C9.82986 26.2143 8.76435 27.1812 8.76435 28.3571C8.76435 29.533 9.82986 30.5 11.1256 30.5C12.4213 30.5 13.4868 29.533 13.4868 28.3571C13.4868 27.1812 12.4213 26.2143 11.1256 26.2143ZM22.9318 26.2143C21.6361 26.2143 20.5706 27.1812 20.5706 28.3571C20.5706 29.533 21.6361 30.5 22.9318 30.5C24.2275 30.5 25.2931 29.533 25.2931 28.3571C25.2931 27.1812 24.2275 26.2143 22.9318 26.2143Z" fill="#9FAEC1"/>
</svg>
